<svg width="1200" height="800" viewBox="0 0 1200 800" fill="none" xmlns="http://www.w3.org/2000/svg">
  <rect width="1200" height="800" rx="40" fill="#F8FAFC"/>
  <circle cx="180" cy="120" r="120" fill="#DBEAFE"/>
  <circle cx="1020" cy="700" r="150" fill="#FEF3C7"/>

  <rect x="120" y="170" width="960" height="460" rx="28" fill="white" stroke="#E2E8F0" stroke-width="4"/>

  <rect x="170" y="250" width="180" height="90" rx="16" fill="#EFF6FF" stroke="#BFDBFE" stroke-width="3"/>
  <text x="260" y="304" font-size="26" text-anchor="middle" fill="#1D4ED8" font-family="Arial, sans-serif">Enquiry</text>

  <rect x="430" y="250" width="180" height="90" rx="16" fill="#F8FAFC" stroke="#CBD5E1" stroke-width="3"/>
  <text x="520" y="304" font-size="24" text-anchor="middle" fill="#334155" font-family="Arial, sans-serif">Follow-Up</text>

  <rect x="690" y="250" width="180" height="90" rx="16" fill="#F8FAFC" stroke="#CBD5E1" stroke-width="3"/>
  <text x="780" y="304" font-size="24" text-anchor="middle" fill="#334155" font-family="Arial, sans-serif">Booking</text>

  <rect x="950" y="250" width="160" height="90" rx="16" fill="#FFFBEB" stroke="#FDE68A" stroke-width="3"/>
  <text x="1030" y="304" font-size="22" text-anchor="middle" fill="#B45309" font-family="Arial, sans-serif">Confirmed</text>

  <path d="M350 294H430" stroke="#1D4ED8" stroke-width="5" stroke-linecap="round"/>
  <path d="M610 294H690" stroke="#1D4ED8" stroke-width="5" stroke-linecap="round"/>
  <path d="M870 294H950" stroke="#1D4ED8" stroke-width="5" stroke-linecap="round"/>

  <circle cx="450" cy="430" r="14" fill="#F59E0B"/>
  <circle cx="740" cy="430" r="14" fill="#F59E0B"/>
  <circle cx="880" cy="430" r="14" fill="#F59E0B"/>

  <text x="600" y="505" font-size="34" text-anchor="middle" fill="#0F172A" font-family="Arial, sans-serif" font-weight="700">
    Remove the friction. Keep more bookings.
  </text>
</svg>
